<svg xmlns="http://www.w3.org/2000/svg" viewBox="0 0 128 128" role="img" aria-label="Paper">
  <defs>
    <linearGradient id="g" x1="0" y1="0" x2="0" y2="1">
      <stop offset="0" stop-color="#ffffff"/>
      <stop offset="1" stop-color="#eef1f7"/>
    </linearGradient>
  </defs>
  <!-- page body -->
  <path d="M32 12h44l20 20v84a8 8 0 0 1-8 8H32a8 8 0 0 1-8-8V20a8 8 0 0 1 8-8z" fill="url(#g)"/>
  <!-- fold -->
  <path d="M76 12v20h20" fill="#d9deea"/>
  <!-- outline -->
  <path d="M32 12h44l20 20v84a8 8 0 0 1-8 8H32a8 8 0 0 1-8-8V20a8 8 0 0 1 8-8z" fill="none" stroke="#7c7f93" stroke-width="6" stroke-linejoin="round"/>
  <path d="M76 12v20h20" fill="none" stroke="#7c7f93" stroke-width="6" stroke-linejoin="round"/>
  <!-- lines -->
  <path d="M40 64h48M40 80h48M40 96h40" stroke="#a6adc8" stroke-width="6" stroke-linecap="round"/>
</svg>
